name C:\Users\u0101727\Documents\MyRepositories\upper-imu-dc\Results\main_tracking\Case_32\ABD01_linearAccelerations_bodyFrame.mot
datacolumns 4
datarows 82
range 6.31000000 7.12000000
endheader 
time	radius_imu_x	radius_imu_y	radius_imu_z	
          6.31000000	          0.95958133	         -8.46400411	          4.87334076	
          6.32000000	          0.84248753	         -8.46405682	          4.81976356	
          6.33000000	          0.71087456	         -8.45839921	          4.75397187	
          6.34000000	          0.57360520	         -8.45327094	          4.67673713	
          6.35000000	          0.43671267	         -8.45529266	          4.58947594	
          6.36000000	          0.30223116	         -8.46970539	          4.49463839	
          6.37000000	          0.16833860	         -8.49838469	          4.39598887	
          6.38000000	          0.03109634	         -8.53860110	          4.29841715	
          6.39000000	         -0.11263408	         -8.58367244	          4.20705228	
          6.40000000	         -0.26237576	         -8.62585459	          4.12588571	
          6.41000000	         -0.41296741	         -8.66017226	          4.05652838	
          6.42000000	         -0.55583825	         -8.68680384	          3.99775284	
          6.43000000	         -0.68174833	         -8.71054860	          3.94601523	
          6.44000000	         -0.78375259	         -8.73794122	          3.89666449	
          6.45000000	         -0.85938983	         -8.77380775	          3.84538645	
          6.46000000	         -0.91127462	         -8.81896342	          3.78945689	
          6.47000000	         -0.94575086	         -8.86990282	          3.72842861	
          6.48000000	         -0.96997955	         -8.92042958	          3.66399047	
          6.49000000	         -0.98862500	         -8.96449258	          3.59904822	
          6.50000000	         -1.00185105	         -8.99894383	          3.53654786	
          6.51000000	         -1.00567504	         -9.02482643	          3.47872509	
          6.52000000	         -0.99419744	         -9.04652203	          3.42700297	
          6.53000000	         -0.96229866	         -9.06924923	          3.38223165	
          6.54000000	         -0.90754079	         -9.09619016	          3.34493182	
          6.55000000	         -0.83070961	         -9.12666169	          3.31539439	
          6.56000000	         -0.73511948	         -9.15629362	          3.29357269	
          6.57000000	         -0.62520470	         -9.17919860	          3.27875475	
          6.58000000	         -0.50512835	         -9.19102367	          3.26919613	
          6.59000000	         -0.37809939	         -9.19121927	          3.26209106	
          6.60000000	         -0.24654980	         -9.18334713	          3.25405350	
          6.61000000	         -0.11270155	         -9.17342830	          3.24186160	
          6.62000000	          0.02101865	         -9.16737403	          3.22313182	
          6.63000000	          0.15177487	         -9.16900296	          3.19668784	
          6.64000000	          0.27617840	         -9.17965630	          3.16243722	
          6.65000000	          0.39013537	         -9.19903272	          3.12087109	
          6.66000000	          0.48873351	         -9.22586807	          3.07265029	
          6.67000000	          0.56641049	         -9.25754195	          3.01867400	
          6.68000000	          0.61771499	         -9.28905747	          2.96051881	
          6.69000000	          0.63858652	         -9.31278402	          2.90070016	
          6.70000000	          0.62751567	         -9.32022431	          2.84230251	
          6.71000000	          0.58597392	         -9.30569696	          2.78800808	
          6.72000000	          0.51814452	         -9.26980844	          2.73904838	
          6.73000000	          0.43027734	         -9.22006681	          2.69477225	
          6.74000000	          0.32959797	         -9.16819504	          2.65307859	
          6.75000000	          0.22270208	         -9.12622177	          2.61132363	
          6.76000000	          0.11403209	         -9.10366212	          2.56710472	
          6.77000000	          0.00546801	         -9.10652456	          2.51858655	
          6.78000000	         -0.10267687	         -9.13725887	          2.46457039	
          6.79000000	         -0.21010065	         -9.19448027	          2.40472089	
          6.80000000	         -0.31544887	         -9.27249010	          2.33990504	
          6.81000000	         -0.41611795	         -9.36157627	          2.27224860	
          6.82000000	         -0.50856901	         -9.44964485	          2.20473587	
          6.83000000	         -0.58873902	         -9.52472732	          2.14051815	
          6.84000000	         -0.65256223	         -9.57743655	          2.08222932	
          6.85000000	         -0.69666857	         -9.60277206	          2.03150711	
          6.86000000	         -0.71910307	         -9.60127377	          1.98872059	
          6.87000000	         -0.71985298	         -9.57942043	          1.95292934	
          6.88000000	         -0.70093704	         -9.54844512	          1.92231843	
          6.89000000	         -0.66587295	         -9.52099860	          1.89516076	
          6.90000000	         -0.61865866	         -9.50667236	          1.87079282	
          6.91000000	         -0.56323950	         -9.50865833	          1.85010131	
          6.92000000	         -0.50372785	         -9.52351571	          1.83520513	
          6.93000000	         -0.44512782	         -9.54436569	          1.82848259	
          6.94000000	         -0.39342123	         -9.56535185	          1.83139561	
          6.95000000	         -0.35445963	         -9.58425339	          1.84379409	
          6.96000000	         -0.33213036	         -9.60181403	          1.86400825	
          6.97000000	         -0.32678236	         -9.61882751	          1.88944666	
          6.98000000	         -0.33496560	         -9.63354539	          1.91719267	
          6.99000000	         -0.35093418	         -9.64151929	          1.94427650	
          7.00000000	         -0.36906802	         -9.63779821	          1.96765055	
          7.01000000	         -0.38578580	         -9.61969710	          1.98407130	
          7.02000000	         -0.40027897	         -9.58852430	          1.99004827	
          7.03000000	         -0.41421761	         -9.54962625	          1.98198879	
          7.04000000	         -0.43101174	         -9.51099978	          1.95656468	
          7.05000000	         -0.45530521	         -9.48132516	          1.91115136	
          7.06000000	         -0.49265235	         -9.46805328	          1.84421875	
          7.07000000	         -0.54861146	         -9.47564931	          1.75568745	
          7.08000000	         -0.62704594	         -9.50431434	          1.64723790	
          7.09000000	         -0.72846268	         -9.54956457	          1.52246946	
          7.10000000	         -0.84949377	         -9.60308000	          1.38673404	
          7.11000000	         -0.98400168	         -9.65451622	          1.24669102	
          7.12000000	         -1.12533377	         -9.69407757	          1.10969697	
